<mxfile host="app.diagrams.net" modified="2023-03-23T12:33:46.841Z" agent="5.0 (Windows)" etag="T_HEfKcY2qD1TODPi00m" version="21.0.10" type="github">
  <diagram id="C5RBs43oDa-KdzZeNtuy" name="Page-1">
    <mxGraphModel dx="2022" dy="652" grid="1" gridSize="10" guides="1" tooltips="1" connect="1" arrows="1" fold="1" page="1" pageScale="1" pageWidth="827" pageHeight="1169" math="0" shadow="0">
      <root>
        <mxCell id="WIyWlLk6GJQsqaUBKTNV-0" />
        <mxCell id="WIyWlLk6GJQsqaUBKTNV-1" parent="WIyWlLk6GJQsqaUBKTNV-0" />
        <mxCell id="po3rzbrGeJac28P5XHXe-3" value="" style="edgeStyle=orthogonalEdgeStyle;rounded=0;orthogonalLoop=1;jettySize=auto;html=1;" edge="1" parent="WIyWlLk6GJQsqaUBKTNV-1" source="po3rzbrGeJac28P5XHXe-1" target="po3rzbrGeJac28P5XHXe-2">
          <mxGeometry relative="1" as="geometry" />
        </mxCell>
        <mxCell id="po3rzbrGeJac28P5XHXe-1" value="START" style="ellipse;whiteSpace=wrap;html=1;" vertex="1" parent="WIyWlLk6GJQsqaUBKTNV-1">
          <mxGeometry x="190" y="110" width="120" height="80" as="geometry" />
        </mxCell>
        <mxCell id="po3rzbrGeJac28P5XHXe-5" value="" style="edgeStyle=orthogonalEdgeStyle;rounded=0;orthogonalLoop=1;jettySize=auto;html=1;" edge="1" parent="WIyWlLk6GJQsqaUBKTNV-1" source="po3rzbrGeJac28P5XHXe-2" target="po3rzbrGeJac28P5XHXe-4">
          <mxGeometry relative="1" as="geometry" />
        </mxCell>
        <mxCell id="po3rzbrGeJac28P5XHXe-2" value="&lt;div&gt;podaj n&lt;br&gt;&lt;/div&gt;&lt;div&gt;i = n&lt;br&gt;&lt;/div&gt;&lt;div&gt;suma = 0&lt;br&gt;&lt;/div&gt;" style="whiteSpace=wrap;html=1;" vertex="1" parent="WIyWlLk6GJQsqaUBKTNV-1">
          <mxGeometry x="190" y="280" width="120" height="60" as="geometry" />
        </mxCell>
        <mxCell id="po3rzbrGeJac28P5XHXe-7" value="" style="edgeStyle=orthogonalEdgeStyle;rounded=0;orthogonalLoop=1;jettySize=auto;html=1;" edge="1" parent="WIyWlLk6GJQsqaUBKTNV-1" source="po3rzbrGeJac28P5XHXe-4" target="po3rzbrGeJac28P5XHXe-6">
          <mxGeometry relative="1" as="geometry" />
        </mxCell>
        <mxCell id="po3rzbrGeJac28P5XHXe-8" value="&lt;div&gt;TAK&lt;/div&gt;" style="edgeLabel;html=1;align=center;verticalAlign=middle;resizable=0;points=[];" vertex="1" connectable="0" parent="po3rzbrGeJac28P5XHXe-7">
          <mxGeometry x="-0.15" relative="1" as="geometry">
            <mxPoint as="offset" />
          </mxGeometry>
        </mxCell>
        <mxCell id="po3rzbrGeJac28P5XHXe-11" value="" style="edgeStyle=orthogonalEdgeStyle;rounded=0;orthogonalLoop=1;jettySize=auto;html=1;" edge="1" parent="WIyWlLk6GJQsqaUBKTNV-1" source="po3rzbrGeJac28P5XHXe-4" target="po3rzbrGeJac28P5XHXe-10">
          <mxGeometry relative="1" as="geometry" />
        </mxCell>
        <mxCell id="po3rzbrGeJac28P5XHXe-4" value="i &amp;gt; 0" style="rhombus;whiteSpace=wrap;html=1;" vertex="1" parent="WIyWlLk6GJQsqaUBKTNV-1">
          <mxGeometry x="210" y="410" width="80" height="80" as="geometry" />
        </mxCell>
        <mxCell id="po3rzbrGeJac28P5XHXe-6" value="&lt;div&gt;pobierz a&lt;/div&gt;&lt;div&gt;suma = suma+a&lt;br&gt;&lt;/div&gt;" style="whiteSpace=wrap;html=1;" vertex="1" parent="WIyWlLk6GJQsqaUBKTNV-1">
          <mxGeometry x="30" y="420" width="120" height="60" as="geometry" />
        </mxCell>
        <mxCell id="po3rzbrGeJac28P5XHXe-9" value="" style="endArrow=classic;html=1;rounded=0;exitX=0.5;exitY=1;exitDx=0;exitDy=0;entryX=0;entryY=0.5;entryDx=0;entryDy=0;" edge="1" parent="WIyWlLk6GJQsqaUBKTNV-1" source="po3rzbrGeJac28P5XHXe-6" target="po3rzbrGeJac28P5XHXe-2">
          <mxGeometry width="50" height="50" relative="1" as="geometry">
            <mxPoint x="80" y="570" as="sourcePoint" />
            <mxPoint y="320" as="targetPoint" />
            <Array as="points">
              <mxPoint x="90" y="540" />
              <mxPoint y="540" />
              <mxPoint y="310" />
            </Array>
          </mxGeometry>
        </mxCell>
        <mxCell id="po3rzbrGeJac28P5XHXe-13" value="" style="edgeStyle=orthogonalEdgeStyle;rounded=0;orthogonalLoop=1;jettySize=auto;html=1;" edge="1" parent="WIyWlLk6GJQsqaUBKTNV-1" source="po3rzbrGeJac28P5XHXe-10" target="po3rzbrGeJac28P5XHXe-12">
          <mxGeometry relative="1" as="geometry" />
        </mxCell>
        <mxCell id="po3rzbrGeJac28P5XHXe-10" value="suma /n" style="whiteSpace=wrap;html=1;" vertex="1" parent="WIyWlLk6GJQsqaUBKTNV-1">
          <mxGeometry x="350" y="420" width="120" height="60" as="geometry" />
        </mxCell>
        <mxCell id="po3rzbrGeJac28P5XHXe-12" value="STOP" style="ellipse;whiteSpace=wrap;html=1;" vertex="1" parent="WIyWlLk6GJQsqaUBKTNV-1">
          <mxGeometry x="377.5" y="540" width="65" height="35" as="geometry" />
        </mxCell>
      </root>
    </mxGraphModel>
  </diagram>
</mxfile>
